<svg width="30" height="30" viewBox="0 0 30 30" fill="none" xmlns="http://www.w3.org/2000/svg">
<rect x="1" y="1" width="28" height="28" rx="14" fill="white"/>
<path d="M7.5 15.4959V9.00089L13.125 12.2484V14.4134L9.375 12.2484V16.5784L7.5 15.4959Z" fill="#1565C0"/>
<path d="M13.125 12.2484L18.75 9.00089V15.4959L15 17.6609L13.125 16.5784L16.875 14.4134V12.2484L13.125 14.4134V12.2484Z" fill="#2196F3"/>
<path d="M13.125 16.5778V18.7428L16.875 20.9078V18.7428L13.125 16.5778Z" fill="#1565C0"/>
<path d="M16.875 20.9084L22.5 17.6609V13.3309L20.625 14.4134V16.5784L16.875 18.7434V20.9084ZM20.625 12.2484V10.0834L22.5 9.00089V11.1659L20.625 12.2484Z" fill="#2196F3"/>
<rect x="1" y="1" width="28" height="28" rx="14" stroke="#2196F3" stroke-width="2"/>
</svg>
