<svg width="15" height="13" viewBox="0 0 15 13" fill="none" xmlns="http://www.w3.org/2000/svg">
<path d="M14.1666 5.16013L9.37325 4.75347L7.49992 0.333466L5.62659 4.75347L0.833252 5.16013L4.47325 8.31347L3.37992 13.0001L7.49992 10.5135L11.6199 13.0001L10.5266 8.31347L14.1666 5.16013ZM9.22659 8.61347L9.59992 10.2201L8.18659 9.3668L7.49992 8.95347L6.81325 9.3668L5.39992 10.2201L5.77325 8.61347L5.95325 7.8268L5.34659 7.30013L4.09325 6.21347L5.73992 6.07347L6.53992 6.0068L6.85325 5.2668L7.49992 3.75347L8.14659 5.28013L8.45992 6.02013L9.25992 6.0868L10.9066 6.2268L9.65325 7.31347L9.04659 7.84013L9.22659 8.61347V8.61347Z" fill="#FFC107"/>
</svg>
